<mxfile host="app.diagrams.net" agent="Mozilla/5.0 (Windows NT 10.0; Win64; x64) AppleWebKit/537.36 (KHTML, like Gecko) Chrome/138.0.0.0 Safari/537.36 Edg/138.0.0.0" version="27.2.0">
  <diagram name="Page-1" id="5f0bae14-7c28-e335-631c-24af17079c00">
    <mxGraphModel dx="1182" dy="690" grid="1" gridSize="10" guides="1" tooltips="1" connect="1" arrows="1" fold="1" page="1" pageScale="1" pageWidth="1100" pageHeight="850" background="none" math="0" shadow="0">
      <root>
        <mxCell id="0" />
        <mxCell id="1" parent="0" />
        <mxCell id="q5ERVc1xR0mQe9j5gG5I-4" value="&lt;b&gt;Reflix&lt;/b&gt;&lt;div&gt;Base de données&lt;/div&gt;" style="whiteSpace=wrap;html=1;aspect=fixed;fillColor=#f8cecc;strokeColor=#b85450;" vertex="1" parent="1">
          <mxGeometry x="700" y="520" width="100" height="100" as="geometry" />
        </mxCell>
        <mxCell id="q5ERVc1xR0mQe9j5gG5I-8" value="Requête les données" style="text;html=1;align=center;verticalAlign=middle;resizable=0;points=[];autosize=1;strokeColor=none;fillColor=none;" vertex="1" parent="1">
          <mxGeometry x="590" y="450" width="140" height="30" as="geometry" />
        </mxCell>
        <mxCell id="q5ERVc1xR0mQe9j5gG5I-12" value="Envoie les données" style="text;html=1;align=center;verticalAlign=middle;resizable=0;points=[];autosize=1;strokeColor=none;fillColor=none;" vertex="1" parent="1">
          <mxGeometry x="770" y="450" width="130" height="30" as="geometry" />
        </mxCell>
        <mxCell id="q5ERVc1xR0mQe9j5gG5I-16" style="edgeStyle=orthogonalEdgeStyle;rounded=0;orthogonalLoop=1;jettySize=auto;html=1;exitX=0.25;exitY=1;exitDx=0;exitDy=0;entryX=0.25;entryY=0;entryDx=0;entryDy=0;" edge="1" parent="1" source="q5ERVc1xR0mQe9j5gG5I-2" target="q5ERVc1xR0mQe9j5gG5I-3">
          <mxGeometry relative="1" as="geometry" />
        </mxCell>
        <mxCell id="q5ERVc1xR0mQe9j5gG5I-17" value="&lt;div&gt;Modifie la configuration du portefeuille&lt;/div&gt;&lt;div&gt;&lt;br&gt;&lt;/div&gt;" style="text;html=1;align=center;verticalAlign=middle;resizable=0;points=[];autosize=1;strokeColor=none;fillColor=none;" vertex="1" parent="1">
          <mxGeometry x="370" y="250" width="230" height="40" as="geometry" />
        </mxCell>
        <mxCell id="q5ERVc1xR0mQe9j5gG5I-25" value="" style="group" vertex="1" connectable="0" parent="1">
          <mxGeometry x="530" y="60" width="200" height="170" as="geometry" />
        </mxCell>
        <mxCell id="q5ERVc1xR0mQe9j5gG5I-1" value="&lt;b&gt;Utilisateur&lt;/b&gt;" style="shape=actor;whiteSpace=wrap;html=1;fillColor=#dae8fc;strokeColor=#6c8ebf;" vertex="1" parent="q5ERVc1xR0mQe9j5gG5I-25">
          <mxGeometry width="140" height="170" as="geometry" />
        </mxCell>
        <mxCell id="q5ERVc1xR0mQe9j5gG5I-2" value="&lt;font style=&quot;font-size: 10px;&quot;&gt;- Gérant&amp;nbsp;&lt;/font&gt;&lt;div&gt;&lt;font style=&quot;font-size: 10px;&quot;&gt;- Responsable des risques&lt;/font&gt;&lt;/div&gt;&lt;div&gt;&lt;font style=&quot;font-size: 10px;&quot;&gt;- Dirigeant&lt;br&gt;&lt;/font&gt;&lt;div&gt;&lt;br&gt;&lt;/div&gt;&lt;/div&gt;" style="text;html=1;align=left;verticalAlign=middle;whiteSpace=wrap;rounded=0;" vertex="1" parent="q5ERVc1xR0mQe9j5gG5I-25">
          <mxGeometry x="10" y="110" width="190" height="60" as="geometry" />
        </mxCell>
        <mxCell id="q5ERVc1xR0mQe9j5gG5I-27" value="" style="group" vertex="1" connectable="0" parent="1">
          <mxGeometry x="390" y="300" width="420" height="125" as="geometry" />
        </mxCell>
        <mxCell id="q5ERVc1xR0mQe9j5gG5I-24" value="" style="rounded=0;whiteSpace=wrap;html=1;fillColor=#d5e8d4;strokeColor=#82b366;" vertex="1" parent="q5ERVc1xR0mQe9j5gG5I-27">
          <mxGeometry width="420" height="125" as="geometry" />
        </mxCell>
        <mxCell id="q5ERVc1xR0mQe9j5gG5I-18" style="edgeStyle=orthogonalEdgeStyle;rounded=0;orthogonalLoop=1;jettySize=auto;html=1;exitX=1;exitY=0.25;exitDx=0;exitDy=0;entryX=0;entryY=0.25;entryDx=0;entryDy=0;" edge="1" parent="q5ERVc1xR0mQe9j5gG5I-27" source="q5ERVc1xR0mQe9j5gG5I-3" target="q5ERVc1xR0mQe9j5gG5I-5">
          <mxGeometry relative="1" as="geometry" />
        </mxCell>
        <mxCell id="q5ERVc1xR0mQe9j5gG5I-3" value="&lt;b&gt;&lt;font style=&quot;font-size: 11px;&quot;&gt;Goudurix App&lt;/font&gt;&lt;/b&gt;&lt;div&gt;&lt;font style=&quot;font-size: 11px;&quot;&gt;Application Web&lt;/font&gt;&lt;/div&gt;" style="whiteSpace=wrap;html=1;aspect=fixed;" vertex="1" parent="q5ERVc1xR0mQe9j5gG5I-27">
          <mxGeometry x="10" y="10" width="110" height="110" as="geometry" />
        </mxCell>
        <mxCell id="q5ERVc1xR0mQe9j5gG5I-20" style="edgeStyle=orthogonalEdgeStyle;rounded=0;orthogonalLoop=1;jettySize=auto;html=1;exitX=0;exitY=0.75;exitDx=0;exitDy=0;entryX=1;entryY=0.75;entryDx=0;entryDy=0;" edge="1" parent="q5ERVc1xR0mQe9j5gG5I-27" source="q5ERVc1xR0mQe9j5gG5I-5" target="q5ERVc1xR0mQe9j5gG5I-3">
          <mxGeometry relative="1" as="geometry" />
        </mxCell>
        <mxCell id="q5ERVc1xR0mQe9j5gG5I-5" value="&lt;b&gt;&lt;font style=&quot;font-size: 11px;&quot;&gt;Goudurix Calculator&lt;/font&gt;&lt;/b&gt;&lt;div&gt;&lt;font style=&quot;font-size: 11px;&quot;&gt;Libraire de calcul&lt;/font&gt;&lt;/div&gt;" style="whiteSpace=wrap;html=1;aspect=fixed;" vertex="1" parent="q5ERVc1xR0mQe9j5gG5I-27">
          <mxGeometry x="300" y="10" width="110" height="110" as="geometry" />
        </mxCell>
        <mxCell id="q5ERVc1xR0mQe9j5gG5I-19" value="Appel des fonctions de calcul&amp;nbsp;" style="text;html=1;align=center;verticalAlign=middle;resizable=0;points=[];autosize=1;strokeColor=none;fillColor=none;" vertex="1" parent="q5ERVc1xR0mQe9j5gG5I-27">
          <mxGeometry x="120" y="15" width="180" height="30" as="geometry" />
        </mxCell>
        <mxCell id="q5ERVc1xR0mQe9j5gG5I-21" value="Renvoie des objets&lt;div&gt;contenant les résultats des calculs&lt;/div&gt;" style="text;html=1;align=center;verticalAlign=middle;resizable=0;points=[];autosize=1;strokeColor=none;fillColor=none;" vertex="1" parent="q5ERVc1xR0mQe9j5gG5I-27">
          <mxGeometry x="110" y="55" width="210" height="40" as="geometry" />
        </mxCell>
        <mxCell id="q5ERVc1xR0mQe9j5gG5I-28" style="edgeStyle=orthogonalEdgeStyle;rounded=0;orthogonalLoop=1;jettySize=auto;html=1;exitX=0.75;exitY=0;exitDx=0;exitDy=0;entryX=0.919;entryY=0.993;entryDx=0;entryDy=0;entryPerimeter=0;" edge="1" parent="1" source="q5ERVc1xR0mQe9j5gG5I-4" target="q5ERVc1xR0mQe9j5gG5I-24">
          <mxGeometry relative="1" as="geometry" />
        </mxCell>
        <mxCell id="q5ERVc1xR0mQe9j5gG5I-31" style="edgeStyle=orthogonalEdgeStyle;rounded=0;orthogonalLoop=1;jettySize=auto;html=1;entryX=0.25;entryY=0;entryDx=0;entryDy=0;" edge="1" parent="1" target="q5ERVc1xR0mQe9j5gG5I-4">
          <mxGeometry relative="1" as="geometry">
            <mxPoint x="725" y="425" as="sourcePoint" />
            <Array as="points">
              <mxPoint x="725" y="425" />
            </Array>
          </mxGeometry>
        </mxCell>
      </root>
    </mxGraphModel>
  </diagram>
</mxfile>
